<svg width="15" height="18" viewBox="0 0 15 18" fill="none" xmlns="http://www.w3.org/2000/svg">
<path fill-rule="evenodd" clip-rule="evenodd" d="M12.9525 5.35582L14.0302 4.27854L12.9697 3.21814L11.8168 4.37057C10.7636 3.62449 9.53449 3.16467 8.25 3.03616V1.49934H9.75V0H5.25V1.49934H6.75V3.03616C5.46551 3.16467 4.23644 3.62449 3.18319 4.37057L2.03026 3.21814L0.969757 4.27854L2.04751 5.35582C-0.758441 8.32539 -0.669553 12.9938 2.2474 15.8545C5.16436 18.7152 9.83564 18.7152 12.7526 15.8545C15.6696 12.9938 15.7584 8.32539 12.9525 5.35582ZM7.5 16.4927C4.18629 16.4927 1.50001 13.8076 1.50001 10.4954C1.50001 7.18311 4.18629 4.49801 7.5 4.49801C10.8137 4.49801 13.5 7.18311 13.5 10.4954C13.4963 13.8061 10.8122 16.489 7.5 16.4927ZM7.5 10.4954V5.99734C9.98528 5.99734 12 8.01117 12 10.4954C12 12.9795 9.98528 14.9934 7.5 14.9934C5.01472 14.9934 3 12.9795 3 10.4954H7.5Z" fill="#F07867"/>
</svg>
