<svg width="48" height="48" viewBox="0 0 48 48" fill="none" xmlns="http://www.w3.org/2000/svg">
<path fill-rule="evenodd" clip-rule="evenodd" d="M12.75 11.25C12.75 5.04675 17.7968 0 24 0C30.2032 0 35.25 5.04675 35.25 11.25C35.25 13.3773 34.6527 15.4497 33.5222 17.243L24 32.4375L14.4778 17.243C13.3473 15.4497 12.75 13.3773 12.75 11.25ZM16.9688 11.25C16.9688 15.1267 20.1233 18.2812 24 18.2812C27.8767 18.2812 31.0312 15.1267 31.0312 11.25C31.0312 7.37329 27.8767 4.21875 24 4.21875C20.1233 4.21875 16.9688 7.37329 16.9688 11.25ZM24 7.03125C21.6738 7.03125 19.7812 8.92383 19.7812 11.25C19.7812 13.5762 21.6738 15.4688 24 15.4688C26.3262 15.4688 28.2188 13.5762 28.2188 11.25C28.2188 8.92383 26.3262 7.03125 24 7.03125ZM30.8394 48H17.1559L18.2102 39.4688H29.7579L30.8394 48ZM18.5618 36.6562H23.335L19.3517 30.3387L18.5618 36.6562ZM43.3129 36.6562H32.2339L31.1517 28.2188H39.7972L43.3129 36.6562ZM4.68713 36.6562H15.7277L16.7823 28.2188H8.20276L4.68713 36.6562ZM29.3972 36.6562H24.665L28.5978 30.4197L29.3972 36.6562ZM15.3761 39.4688H3.51526L0 48H14.3218L15.3761 39.4688ZM32.5942 39.4688H44.4847L48 48H33.676L32.5942 39.4688Z" fill="white"/>
</svg>
