<svg width="51" height="48" viewBox="0 0 51 48" fill="none" xmlns="http://www.w3.org/2000/svg">
<path fill-rule="evenodd" clip-rule="evenodd" d="M50.2669 14.55L44.625 11.19V3C44.625 1.35 43.1906 0 41.4375 0H9.5625C7.80937 0 6.375 1.35 6.375 3V11.19L0.733125 14.55C0.286875 14.82 0 15.3 0 15.81V19.71L9.5625 23.52V3H41.4375V23.52L51 19.71V15.81C51 15.3 50.7131 14.82 50.2669 14.55ZM26.1216 32.88C25.9239 32.961 25.7104 33 25.5 33C25.2896 33 25.0761 32.961 24.8784 32.88L0 22.965V45C0 46.656 1.428 48 3.1875 48H47.8125C49.572 48 51 46.656 51 45V22.965L26.1216 32.88ZM14.3438 6H36.6562C37.536 6 38.25 6.672 38.25 7.5C38.25 8.328 37.536 9 36.6562 9H14.3438C13.464 9 12.75 8.328 12.75 7.5C12.75 6.672 13.464 6 14.3438 6ZM36.6562 12H14.3438C13.464 12 12.75 12.672 12.75 13.5C12.75 14.328 13.464 15 14.3438 15H36.6562C37.536 15 38.25 14.328 38.25 13.5C38.25 12.672 37.536 12 36.6562 12ZM14.3438 18H27.0938C27.9735 18 28.6875 18.672 28.6875 19.5C28.6875 20.328 27.9735 21 27.0938 21H14.3438C13.464 21 12.75 20.328 12.75 19.5C12.75 18.672 13.464 18 14.3438 18Z" fill="white"/>
</svg>
